<mxfile host="app.diagrams.net" modified="2022-01-21T08:50:45.229Z" agent="5.0 (Windows)" etag="xfMvm8Ln1xWnlm_7baOk" version="16.2.7" type="github">
  <diagram id="QBchSwfQgvvRqoAkoElo" name="Page-1">
    <mxGraphModel dx="599" dy="284" grid="1" gridSize="10" guides="1" tooltips="1" connect="1" arrows="1" fold="1" page="1" pageScale="1" pageWidth="850" pageHeight="1100" math="0" shadow="0">
      <root>
        <mxCell id="0" />
        <mxCell id="1" parent="0" />
        <mxCell id="_aDls08xKMx5EJanJG5F-8" value="Integration " style="swimlane;childLayout=stackLayout;resizeParent=1;resizeParentMax=0;horizontal=1;startSize=20;horizontalStack=0;" vertex="1" parent="1">
          <mxGeometry x="180" y="700" width="550" height="850" as="geometry" />
        </mxCell>
        <mxCell id="_aDls08xKMx5EJanJG5F-9" value="" style="swimlane;startSize=20;horizontal=0;" vertex="1" parent="_aDls08xKMx5EJanJG5F-8">
          <mxGeometry y="20" width="550" height="190" as="geometry" />
        </mxCell>
        <mxCell id="_aDls08xKMx5EJanJG5F-10" value="&lt;font style=&quot;font-size: 11px&quot;&gt;Fusion Cloud&lt;/font&gt;" style="text;html=1;strokeColor=none;fillColor=none;align=center;verticalAlign=middle;whiteSpace=wrap;rounded=0;rotation=-90;fontStyle=1" vertex="1" parent="_aDls08xKMx5EJanJG5F-9">
          <mxGeometry x="-35" y="45" width="90" height="30" as="geometry" />
        </mxCell>
        <mxCell id="_aDls08xKMx5EJanJG5F-11" value="" style="sketch=0;outlineConnect=0;fontColor=#232F3E;gradientColor=none;fillColor=#B0084D;strokeColor=none;dashed=0;verticalLabelPosition=bottom;verticalAlign=top;align=center;html=1;fontSize=12;fontStyle=0;aspect=fixed;pointerEvents=1;shape=mxgraph.aws4.eventbridge_default_event_bus_resource;" vertex="1" parent="_aDls08xKMx5EJanJG5F-9">
          <mxGeometry x="150" y="30" width="22.08" height="15" as="geometry" />
        </mxCell>
        <mxCell id="_aDls08xKMx5EJanJG5F-13" value="ERP SAAS" style="rounded=1;whiteSpace=wrap;html=1;fontSize=9;fillColor=#ffe6cc;strokeColor=#d79b00;" vertex="1" parent="_aDls08xKMx5EJanJG5F-9">
          <mxGeometry x="50" y="10" width="100" height="40" as="geometry" />
        </mxCell>
        <mxCell id="_aDls08xKMx5EJanJG5F-14" value="URA Invoice Processing" style="text;html=1;strokeColor=none;fillColor=none;align=center;verticalAlign=middle;whiteSpace=wrap;rounded=0;fontSize=11;" vertex="1" parent="_aDls08xKMx5EJanJG5F-9">
          <mxGeometry x="215" y="163" width="60" height="40" as="geometry" />
        </mxCell>
        <mxCell id="_aDls08xKMx5EJanJG5F-15" value="Update Fusion custom object" style="text;html=1;strokeColor=none;fillColor=none;align=center;verticalAlign=middle;whiteSpace=wrap;rounded=0;fontSize=11;" vertex="1" parent="_aDls08xKMx5EJanJG5F-9">
          <mxGeometry x="390" y="170" width="90" height="40" as="geometry" />
        </mxCell>
        <mxCell id="_aDls08xKMx5EJanJG5F-41" value="&lt;div style=&quot;font-size: 11px&quot;&gt;&lt;b&gt;&lt;font style=&quot;font-size: 11px&quot;&gt;&lt;span&gt;	&lt;/span&gt;&lt;span&gt;	&lt;/span&gt;&lt;span&gt;	&lt;/span&gt;1&lt;/font&gt;&lt;/b&gt;&lt;/div&gt;&lt;div style=&quot;font-size: 11px&quot;&gt;&lt;b&gt;&lt;font style=&quot;font-size: 11px&quot;&gt;&lt;span lang=&quot;EN-GB&quot;&gt;&lt;span&gt;	&lt;/span&gt;&lt;span&gt;	&lt;/span&gt;&lt;span&gt;	&lt;/span&gt;&lt;span&gt;	&lt;/span&gt;&lt;span&gt;	&lt;/span&gt;Receivables&lt;/span&gt;&lt;/font&gt;&lt;/b&gt;&lt;/div&gt;&lt;div style=&quot;font-size: 11px&quot;&gt;&lt;b&gt;&lt;font style=&quot;font-size: 11px&quot;&gt;&lt;span lang=&quot;EN-GB&quot;&gt;CreditMemo&lt;/span&gt;&lt;/font&gt;&lt;/b&gt;&lt;/div&gt;&lt;div style=&quot;font-size: 11px&quot;&gt;&lt;b&gt;&lt;font style=&quot;font-size: 11px&quot;&gt;&lt;span lang=&quot;EN-GB&quot;&gt;&lt;span&gt;	&lt;/span&gt;&lt;span&gt;	&lt;/span&gt;Completed&lt;/span&gt;&lt;/font&gt;&lt;/b&gt;&lt;/div&gt;&lt;div style=&quot;font-size: 11px&quot;&gt;&lt;b&gt;&lt;font style=&quot;font-size: 11px&quot;&gt;&lt;br&gt;&lt;/font&gt;&lt;/b&gt;&lt;/div&gt;&lt;div style=&quot;font-size: 11px&quot;&gt;&lt;b&gt;&lt;font style=&quot;font-size: 11px&quot;&gt;&lt;br&gt;&lt;br&gt;&lt;/font&gt;&lt;/b&gt;&lt;/div&gt;" style="text;html=1;strokeColor=none;fillColor=none;align=center;verticalAlign=middle;whiteSpace=wrap;rounded=0;fontSize=9;" vertex="1" parent="_aDls08xKMx5EJanJG5F-9">
          <mxGeometry x="140" y="30" width="152" height="44" as="geometry" />
        </mxCell>
        <mxCell id="_aDls08xKMx5EJanJG5F-16" value="" style="swimlane;startSize=20;horizontal=0;" vertex="1" parent="_aDls08xKMx5EJanJG5F-8">
          <mxGeometry y="210" width="550" height="520" as="geometry" />
        </mxCell>
        <mxCell id="_aDls08xKMx5EJanJG5F-17" value="&lt;b&gt;OIC&lt;/b&gt;" style="text;html=1;strokeColor=none;fillColor=none;align=center;verticalAlign=middle;whiteSpace=wrap;rounded=0;rotation=-90;" vertex="1" parent="_aDls08xKMx5EJanJG5F-16">
          <mxGeometry x="-20" y="50" width="60" height="10" as="geometry" />
        </mxCell>
        <mxCell id="_aDls08xKMx5EJanJG5F-19" style="edgeStyle=orthogonalEdgeStyle;rounded=0;orthogonalLoop=1;jettySize=auto;html=1;entryX=0;entryY=0.5;entryDx=0;entryDy=0;fontSize=9;exitX=0.992;exitY=0.4;exitDx=0;exitDy=0;exitPerimeter=0;" edge="1" parent="_aDls08xKMx5EJanJG5F-16">
          <mxGeometry relative="1" as="geometry">
            <mxPoint x="309.03999999999996" y="40" as="sourcePoint" />
            <mxPoint x="385" y="40" as="targetPoint" />
          </mxGeometry>
        </mxCell>
        <mxCell id="_aDls08xKMx5EJanJG5F-45" value="" style="edgeStyle=orthogonalEdgeStyle;rounded=0;orthogonalLoop=1;jettySize=auto;html=1;fontSize=11;" edge="1" parent="_aDls08xKMx5EJanJG5F-16" source="_aDls08xKMx5EJanJG5F-20" target="_aDls08xKMx5EJanJG5F-44">
          <mxGeometry relative="1" as="geometry" />
        </mxCell>
        <mxCell id="_aDls08xKMx5EJanJG5F-20" value="&lt;div&gt;INT101_BE_Debit&lt;/div&gt;&lt;div&gt;_Credit_ERP_URA&lt;/div&gt;" style="rounded=1;whiteSpace=wrap;html=1;fillColor=#f8cecc;strokeColor=#b85450;fontStyle=1" vertex="1" parent="_aDls08xKMx5EJanJG5F-16">
          <mxGeometry x="30" y="15" width="120" height="55" as="geometry" />
        </mxCell>
        <mxCell id="_aDls08xKMx5EJanJG5F-21" value="&lt;div style=&quot;font-size: 8px&quot;&gt;&lt;b&gt;&lt;font style=&quot;font-size: 8px&quot;&gt;INT101_Process_Invoice&lt;/font&gt;&lt;/b&gt;&lt;/div&gt;&lt;div style=&quot;font-size: 8px&quot;&gt;&lt;b&gt;&lt;font style=&quot;font-size: 8px&quot;&gt;_Debit_ERP_URA &lt;/font&gt;&lt;/b&gt;&lt;/div&gt;" style="rounded=1;whiteSpace=wrap;html=1;fillColor=#d5e8d4;strokeColor=#82b366;" vertex="1" parent="_aDls08xKMx5EJanJG5F-16">
          <mxGeometry x="190" y="15" width="120" height="55" as="geometry" />
        </mxCell>
        <mxCell id="_aDls08xKMx5EJanJG5F-22" value="&lt;div style=&quot;font-size: 11px&quot;&gt;&amp;nbsp;&lt;font style=&quot;font-size: 11px&quot;&gt;INT101_Fusion_&lt;/font&gt;&lt;/div&gt;&lt;div style=&quot;font-size: 11px&quot;&gt;&lt;font style=&quot;font-size: 11px&quot;&gt;Processing_URA_ERP&lt;/font&gt;&lt;/div&gt;" style="rounded=1;whiteSpace=wrap;html=1;fillColor=#d5e8d4;strokeColor=#82b366;" vertex="1" parent="_aDls08xKMx5EJanJG5F-16">
          <mxGeometry x="390" y="15" width="120" height="55" as="geometry" />
        </mxCell>
        <mxCell id="_aDls08xKMx5EJanJG5F-23" value="Process Payload" style="text;html=1;strokeColor=none;fillColor=none;align=center;verticalAlign=middle;whiteSpace=wrap;rounded=0;fontSize=11;" vertex="1" parent="_aDls08xKMx5EJanJG5F-16">
          <mxGeometry x="100" y="-15" width="60" height="30" as="geometry" />
        </mxCell>
        <mxCell id="_aDls08xKMx5EJanJG5F-24" value="" style="shape=flexArrow;endArrow=classic;startArrow=classic;html=1;rounded=0;fontSize=9;exitX=0.593;exitY=-0.037;exitDx=0;exitDy=0;exitPerimeter=0;" edge="1" parent="_aDls08xKMx5EJanJG5F-16">
          <mxGeometry width="100" height="100" relative="1" as="geometry">
            <mxPoint x="247.46344" y="267.4099999999996" as="sourcePoint" />
            <mxPoint x="250.95185185185187" y="70" as="targetPoint" />
          </mxGeometry>
        </mxCell>
        <mxCell id="_aDls08xKMx5EJanJG5F-44" value="INT101_BE_Debit _Credit_ERP_URA" style="rounded=1;whiteSpace=wrap;html=1;fillColor=#d5e8d4;strokeColor=#82b366;" vertex="1" parent="_aDls08xKMx5EJanJG5F-16">
          <mxGeometry x="30" y="131" width="120" height="55" as="geometry" />
        </mxCell>
        <mxCell id="_aDls08xKMx5EJanJG5F-37" value="&lt;div&gt;3.2&lt;/div&gt;&lt;div&gt;Invoke- &lt;br&gt;&lt;/div&gt;&lt;div&gt;Insert into DB&lt;br&gt;&lt;/div&gt;" style="text;html=1;strokeColor=none;fillColor=none;align=center;verticalAlign=middle;whiteSpace=wrap;rounded=0;fontSize=11;" vertex="1" parent="_aDls08xKMx5EJanJG5F-16">
          <mxGeometry x="245" y="190" width="95" height="40" as="geometry" />
        </mxCell>
        <mxCell id="_aDls08xKMx5EJanJG5F-49" value="3.Invoke-Debit " style="text;html=1;strokeColor=none;fillColor=none;align=center;verticalAlign=middle;whiteSpace=wrap;rounded=0;fontSize=11;" vertex="1" parent="_aDls08xKMx5EJanJG5F-16">
          <mxGeometry x="100" y="97" width="60" height="30" as="geometry" />
        </mxCell>
        <mxCell id="_aDls08xKMx5EJanJG5F-25" value="URA API" style="swimlane;startSize=20;horizontal=0;" vertex="1" parent="_aDls08xKMx5EJanJG5F-8">
          <mxGeometry y="730" width="550" height="120" as="geometry" />
        </mxCell>
        <mxCell id="_aDls08xKMx5EJanJG5F-26" value="T109 API " style="rounded=1;whiteSpace=wrap;html=1;fontSize=11;fillColor=#e3c800;fontColor=#000000;strokeColor=#B09500;" vertex="1" parent="_aDls08xKMx5EJanJG5F-25">
          <mxGeometry x="183.08" y="30" width="120" height="60" as="geometry" />
        </mxCell>
        <mxCell id="_aDls08xKMx5EJanJG5F-27" value="&lt;div&gt;3.1&lt;/div&gt;&lt;div&gt;Invoke- URA Invoice API&lt;/div&gt;" style="text;html=1;strokeColor=none;fillColor=none;align=center;verticalAlign=middle;whiteSpace=wrap;rounded=0;fontSize=11;" vertex="1" parent="_aDls08xKMx5EJanJG5F-25">
          <mxGeometry x="126" y="-15" width="95" height="40" as="geometry" />
        </mxCell>
        <mxCell id="_aDls08xKMx5EJanJG5F-28" style="edgeStyle=orthogonalEdgeStyle;rounded=0;orthogonalLoop=1;jettySize=auto;html=1;fontSize=11;" edge="1" parent="_aDls08xKMx5EJanJG5F-8" source="_aDls08xKMx5EJanJG5F-11" target="_aDls08xKMx5EJanJG5F-20">
          <mxGeometry relative="1" as="geometry" />
        </mxCell>
        <mxCell id="_aDls08xKMx5EJanJG5F-29" value="&lt;h1&gt;Debit&amp;nbsp; Flow &lt;br&gt;&lt;/h1&gt;&amp;nbsp;" style="text;html=1;strokeColor=none;fillColor=none;spacing=5;spacingTop=-20;whiteSpace=wrap;overflow=hidden;rounded=0;fontSize=9;" vertex="1" parent="1">
          <mxGeometry x="332.5" y="660" width="245" height="40" as="geometry" />
        </mxCell>
        <mxCell id="_aDls08xKMx5EJanJG5F-30" value="2 .Invoke" style="text;html=1;strokeColor=none;fillColor=none;align=center;verticalAlign=middle;whiteSpace=wrap;rounded=0;fontSize=11;" vertex="1" parent="1">
          <mxGeometry x="240" y="850" width="60" height="20" as="geometry" />
        </mxCell>
        <mxCell id="_aDls08xKMx5EJanJG5F-31" value="Fusion Custom Object" style="swimlane;startSize=20;horizontal=0;fontSize=12;fontStyle=1" vertex="1" parent="1">
          <mxGeometry x="180" y="1290" width="550" height="190" as="geometry" />
        </mxCell>
        <mxCell id="_aDls08xKMx5EJanJG5F-32" value="ERP SAAS" style="rounded=1;whiteSpace=wrap;html=1;fontSize=9;fillColor=#ffe6cc;strokeColor=#d79b00;" vertex="1" parent="_aDls08xKMx5EJanJG5F-31">
          <mxGeometry x="190" y="40" width="112.08" height="90" as="geometry" />
        </mxCell>
        <mxCell id="_aDls08xKMx5EJanJG5F-33" value="Custom Objects" style="rounded=1;whiteSpace=wrap;html=1;fontSize=11;fillColor=#fad9d5;strokeColor=#ae4132;" vertex="1" parent="_aDls08xKMx5EJanJG5F-31">
          <mxGeometry x="300" y="70" width="110" height="40" as="geometry" />
        </mxCell>
        <mxCell id="_aDls08xKMx5EJanJG5F-34" style="edgeStyle=orthogonalEdgeStyle;rounded=0;orthogonalLoop=1;jettySize=auto;html=1;entryX=1;entryY=0;entryDx=0;entryDy=0;fontSize=11;" edge="1" parent="1" source="_aDls08xKMx5EJanJG5F-22" target="_aDls08xKMx5EJanJG5F-33">
          <mxGeometry relative="1" as="geometry">
            <Array as="points">
              <mxPoint x="650" y="1320" />
              <mxPoint x="590" y="1320" />
            </Array>
          </mxGeometry>
        </mxCell>
        <mxCell id="_aDls08xKMx5EJanJG5F-35" value="DBASS" style="swimlane;startSize=20;horizontal=0;fontSize=11;" vertex="1" parent="1">
          <mxGeometry x="180" y="1150" width="550" height="140" as="geometry" />
        </mxCell>
        <mxCell id="_aDls08xKMx5EJanJG5F-36" value="Oracle DBAAS" style="rounded=1;whiteSpace=wrap;html=1;fontSize=9;fillColor=#ffe6cc;strokeColor=#d79b00;" vertex="1" parent="_aDls08xKMx5EJanJG5F-35">
          <mxGeometry x="180" y="30" width="112.08" height="70" as="geometry" />
        </mxCell>
        <mxCell id="_aDls08xKMx5EJanJG5F-38" value="4.&lt;div&gt;Invoke- Fusion Object update&lt;br&gt;&lt;/div&gt;" style="text;html=1;strokeColor=none;fillColor=none;align=center;verticalAlign=middle;whiteSpace=wrap;rounded=0;fontSize=11;" vertex="1" parent="_aDls08xKMx5EJanJG5F-35">
          <mxGeometry x="380" y="127" width="95" height="40" as="geometry" />
        </mxCell>
        <mxCell id="_aDls08xKMx5EJanJG5F-39" style="edgeStyle=orthogonalEdgeStyle;rounded=0;orthogonalLoop=1;jettySize=auto;html=1;exitX=1;exitY=0.5;exitDx=0;exitDy=0;fontSize=11;" edge="1" parent="1" source="_aDls08xKMx5EJanJG5F-36">
          <mxGeometry relative="1" as="geometry">
            <mxPoint x="472" y="1215" as="targetPoint" />
          </mxGeometry>
        </mxCell>
        <mxCell id="_aDls08xKMx5EJanJG5F-40" style="edgeStyle=orthogonalEdgeStyle;rounded=0;orthogonalLoop=1;jettySize=auto;html=1;entryX=1;entryY=0.5;entryDx=0;entryDy=0;fontSize=11;" edge="1" parent="1" source="_aDls08xKMx5EJanJG5F-21" target="_aDls08xKMx5EJanJG5F-36">
          <mxGeometry relative="1" as="geometry">
            <Array as="points">
              <mxPoint x="510" y="953" />
              <mxPoint x="510" y="1215" />
            </Array>
          </mxGeometry>
        </mxCell>
        <mxCell id="_aDls08xKMx5EJanJG5F-48" style="edgeStyle=orthogonalEdgeStyle;rounded=0;orthogonalLoop=1;jettySize=auto;html=1;fontSize=11;entryX=-0.034;entryY=0.564;entryDx=0;entryDy=0;entryPerimeter=0;" edge="1" parent="1" source="_aDls08xKMx5EJanJG5F-44" target="_aDls08xKMx5EJanJG5F-36">
          <mxGeometry relative="1" as="geometry">
            <mxPoint x="300" y="1270.3448275862067" as="targetPoint" />
            <Array as="points">
              <mxPoint x="270" y="1220" />
            </Array>
          </mxGeometry>
        </mxCell>
      </root>
    </mxGraphModel>
  </diagram>
</mxfile>
